PathFileType	4	(X/Y/Z)	/Users/visionmauri/Downloads/Videos/OAW03-top_Sports2D/OAW03-top_Sports2D_px_person00.trc
DataRate	CameraRate	NumFrames	NumMarkers	Units	OrigDataRate	OrigDataStartFrame	OrigNumFrames
30.0	30.0	12	22	m	30.0	804	2146
Frame#	Time	Hip			RHip			RKnee			RAnkle			RBigToe			RSmallToe			RHeel			LHip			LKnee			LAnkle			LBigToe			LSmallToe			LHeel			Neck			Head			Nose			RShoulder			RElbow			RWrist			LShoulder			LElbow			LWrist			
		X1	Y1	Z1	X2	Y2	Z2	X3	Y3	Z3	X4	Y4	Z4	X5	Y5	Z5	X6	Y6	Z6	X7	Y7	Z7	X8	Y8	Z8	X9	Y9	Z9	X10	Y10	Z10	X11	Y11	Z11	X12	Y12	Z12	X13	Y13	Z13	X14	Y14	Z14	X15	Y15	Z15	X16	Y16	Z16	X17	Y17	Z17	X18	Y18	Z18	X19	Y19	Z19	X20	Y20	Z20	X21	Y21	Z21	X22	Y22	Z22
804	26.812494172494173	512.176023238823	589.7819964699474	0.0	500.73132328770674	591.4438755892412	0.0	498.4755990603697	633.4788849974058	0.0	495.1063132916991	674.6633053020075	0.0	501.7277899334211	689.5788203245435	0.0	494.9297299756732	689.1251309776039	0.0	493.66446573655696	680.3299400595804	0.0	524.0587345557046	591.6477148808054	0.0	521.7879139997411	635.0917559602635	0.0	516.7508998373477	674.2600042915035	0.0	522.3445078147518	687.3171696869092	0.0	527.0646749440953	685.4181730122525	0.0	513.4876303199165	680.5047197004177	0.0	513.2668037758639	515.5663445415238	0.0	513.5278454315752	482.8725275156788	0.0	514.4146716673291	505.676504761541	0.0	489.8844549533234	524.8874059778867	0.0	480.8143628961198	560.0223697243566	0.0	477.046082745929	588.9864897757503	0.0	535.3925660282018	525.2677483226272	0.0	544.3685942561448	558.4844581773358	0.0	549.8572184617699	587.3858473062326	0.0
805	26.845843045843043	512.7368644725719	589.778987806484	0.0	501.32792184613567	591.4668870363467	0.0	499.4514108582453	633.3053160524383	0.0	497.10006194406395	674.1053844471421	0.0	502.2048262886339	689.7177844596927	0.0	495.3622634533082	688.6232360130452	0.0	496.3510833884786	679.8833208867734	0.0	524.5629936473819	591.5854138216471	0.0	521.9436943669717	634.9026305308225	0.0	516.9282536805512	674.0953605315767	0.0	522.3085589543632	687.2899400308444	0.0	527.2429157046637	685.4219605555412	0.0	513.6013245058404	680.0441942424832	0.0	513.3594190137974	515.5489910127001	0.0	513.6724098624194	483.3952894910544	0.0	514.276458049112	505.75054766292794	0.0	490.1779930320739	525.0487788620497	0.0	481.6250891799345	559.9219736276366	0.0	478.15299436744647	588.2674375640973	0.0	535.7085206145667	525.2587692596535	0.0	545.0780565086686	558.2788227428101	0.0	550.1519665472467	586.793412721324	0.0
806	26.879191919191918	513.14010654813	589.6928679176865	0.0	501.7597269848599	591.4288110449713	0.0	500.04223561729674	633.3228522135021	0.0	499.4441410765554	674.0511166052535	0.0	503.39170751192864	689.6482014665287	0.0	496.8387497172068	688.2174203068738	0.0	499.328214169017	680.049578864435	0.0	525.0897019336984	591.5100973188946	0.0	522.298051055494	634.4808816298272	0.0	517.2457807164698	674.0738079855555	0.0	522.4726824511744	687.2008971737504	0.0	527.160156334347	685.5020862140968	0.0	513.9802594368116	679.8276544993628	0.0	513.150161590596	515.5700147543813	0.0	513.4740257475487	483.5804599554322	0.0	513.8189202258498	505.8918276755665	0.0	490.4872898796411	524.9227359368691	0.0	482.2587779894953	559.7851819645558	0.0	479.15884227760444	587.9727025746671	0.0	535.430909481783	524.8880884690155	0.0	545.3890111272667	558.1708806951488	0.0	550.1201707047	586.498690249183	0.0
807	26.912540792540792	513.3638778429178	589.5566688585878	0.0	501.93636591076523	591.2790423029516	0.0	500.41240143433043	633.1990261379191	0.0	501.58325660881076	674.1402950177727	0.0	504.6830303731641	689.2069296068662	0.0	498.2538826398733	687.9310821731157	0.0	501.9015414895017	680.2783127609748	0.0	525.5818482047555	591.4698659257698	0.0	522.757670152162	633.9626174448855	0.0	517.588887698215	674.1111354812452	0.0	522.7922416008995	687.1020239244666	0.0	526.8472437086871	685.6695879759363	0.0	514.4026645471598	679.909410430616	0.0	512.7788574395667	515.5999989728806	0.0	513.0500480341445	483.3151052534161	0.0	513.0617535802993	506.07978280053965	0.0	490.64401946757164	524.6236762720889	0.0	482.57085729633377	559.6678591818079	0.0	479.80215636578356	588.2179449134992	0.0	534.8732717358041	524.461151333207	0.0	545.2760540910789	557.9955124226809	0.0	549.9741483588002	586.4752317019891	0.0
808	26.945889665889666	513.4492253659894	589.6606039858661	0.0	501.98486375937955	591.3937212969095	0.0	500.62773021920816	633.181058558828	0.0	503.0640831356862	674.1154973551327	0.0	505.4032675616508	688.6436037897633	0.0	498.7867220453021	687.5489559724308	0.0	503.56083753947246	680.1850180288974	0.0	525.9486530122629	591.6836560860041	0.0	523.0895978301387	633.6931476593682	0.0	517.7916720120257	674.1075703946346	0.0	522.6786693032243	687.0801025035069	0.0	526.5046948035814	685.8404607231823	0.0	514.7722522722423	680.0940821540886	0.0	512.3824217824485	515.3958053913392	0.0	512.5851315519059	482.89182209397256	0.0	512.3970015137971	505.94278052723627	0.0	490.52924500301106	524.4048609587321	0.0	482.729349637663	559.7406169041404	0.0	480.078739631505	588.7616757996609	0.0	534.3229213642759	524.3401196552268	0.0	544.9415440911031	557.8177856431221	0.0	549.6560811803107	586.5877301203302	0.0
809	26.979238539238537	513.4431926321175	590.2228217639358	0.0	502.0319826320426	592.0056286359761	0.0	500.68822845935154	633.5840499986791	0.0	503.8182335906622	674.036189918215	0.0	505.5106283542769	688.3354601339512	0.0	498.6437306297272	687.0615129902071	0.0	504.3550240459097	679.9148245313696	0.0	526.0705574719113	592.2278545429973	0.0	523.1836381986186	633.9309553237222	0.0	517.8265391319811	674.0574281877438	0.0	521.9388692756154	687.1846686570493	0.0	526.3456634080483	685.9456697980543	0.0	515.0785341431096	680.2535634189932	0.0	512.0132826909877	515.0977623138068	0.0	512.2201054203948	482.6277042834951	0.0	512.09792448707	505.64206244600246	0.0	490.1651595317675	524.537029508101	0.0	482.9239134147802	560.1852010684643	0.0	480.19398970495274	589.4638106013073	0.0	533.9361433020681	524.5040507984949	0.0	544.6236580968415	557.8977238964015	0.0	549.0617775836604	586.828788867745	0.0
810	27.01258741258741	513.3002975472149	590.8786920008744	0.0	501.9494947519354	592.6723789763519	0.0	500.6167247777231	634.1051064108101	0.0	503.9861426847754	674.0477356363635	0.0	505.40219773181735	688.3142853612688	0.0	498.513135803733	686.8182531420631	0.0	504.6506225487585	679.8511445583531	0.0	525.9130121233086	592.7555604644319	0.0	523.1598379338104	634.5282936645071	0.0	517.8540114505176	674.0339217323967	0.0	521.449888487645	687.4094360359136	0.0	526.5941763244729	686.0002347672997	0.0	515.3003523479629	680.4071961011391	0.0	511.63132485931	515.3648930514884	0.0	511.8542940538766	482.8930867829364	0.0	511.7946839089685	505.98964016665053	0.0	489.62712373601966	525.060387211342	0.0	483.0319009054972	560.9273422947899	0.0	480.22526919516235	590.2436090458256	0.0	533.7558859528729	524.80051627744	0.0	544.3681234568359	558.2997786659045	0.0	548.3089118379547	587.1712961570778	0.0
811	27.045936285936286	513.0440844906037	590.9702798133548	0.0	501.7015459506655	592.8215249054297	0.0	500.4594557490833	634.3930541910157	0.0	503.851619462272	674.1572819829768	0.0	505.33643103649086	688.3999462319393	0.0	498.7402376603473	687.0668378164485	0.0	504.72853603018604	680.0664430564549	0.0	525.6000757709227	592.7873170961864	0.0	523.2655665178294	634.9927518758086	0.0	518.1089492312383	674.0606968442062	0.0	521.8341134345536	687.6130682409896	0.0	527.2152471529554	685.9896167972291	0.0	515.5859853374143	680.4957546419984	0.0	511.23406751225053	516.3839698304783	0.0	511.3661265064765	484.05811666905885	0.0	511.0408396883457	507.4039248001654	0.0	489.0863085432473	525.7197414582176	0.0	482.851178198339	561.639032829395	0.0	480.1414949880289	590.8727483810677	0.0	533.6575725902574	525.1911311815084	0.0	544.0987556575972	558.7467420612315	0.0	547.5640690076322	587.3947244233746	0.0
812	27.07928515928516	512.8089378999217	590.3474300909999	0.0	501.51204662590965	592.5184919088915	0.0	500.27215189181055	634.5171013988919	0.0	503.67947308669767	674.2396146948996	0.0	505.30662906428057	688.482431527496	0.0	499.0976689451915	687.479358193145	0.0	504.706536468759	680.2912789901343	0.0	525.292411441829	592.3157534062387	0.0	523.7188759248161	634.8538157310526	0.0	518.7008245817399	673.9656563224439	0.0	522.4614105325787	687.6071365917131	0.0	527.7107351316997	685.8399136251298	0.0	516.1629702983998	680.218805118088	0.0	510.7806937466282	517.4430152075616	0.0	510.8248777024413	485.88416418486725	0.0	509.9989794095545	509.40032078589866	0.0	488.7370975789424	526.201458435997	0.0	482.4453040430753	562.1301421579302	0.0	479.9778477026604	591.3317452913927	0.0	533.3214892762736	525.5135582610844	0.0	543.7426744251355	558.9634560882369	0.0	546.9101167232008	587.3695295061927	0.0
813	27.11263403263403	512.6426545916819	589.4538818577065	0.0	501.4303510054522	592.1345918561128	0.0	500.0418274406865	634.5239122745181	0.0	503.5459547135677	674.1953138586404	0.0	505.28248066175837	688.50382778964	0.0	499.20278550044776	687.554697008455	0.0	504.6711700286396	680.2224730668605	0.0	525.1202318475255	591.7134089615182	0.0	524.5235458803352	633.9712235702322	0.0	519.5492963966252	673.435335610995	0.0	522.5396595905032	687.4555908624907	0.0	527.7545053942075	685.6165789206658	0.0	516.9917965463009	679.2935171153783	0.0	510.2363386325763	517.8835981746515	0.0	510.3866805425272	487.4546054929161	0.0	509.233444304555	511.0160959755254	0.0	488.54727716312937	526.3981814809281	0.0	482.046581093238	562.4490319479295	0.0	479.7670669614152	591.7841165290826	0.0	532.6143480254332	525.5928367266999	0.0	543.3022493006506	558.9715529717748	0.0	546.414760988988	587.2534531346585	0.0
814	27.145982905982905	512.4692269366943	588.7746724454616	0.0	501.1816212834616	591.7520276537444	0.0	499.73200687183424	634.3840503246025	0.0	503.4335013560771	674.0464790373486	0.0	505.3117240724637	688.4879945616944	0.0	498.9918004336913	687.3314648616004	0.0	504.6731981361498	679.7843762207142	0.0	525.1202969480928	591.1858704953339	0.0	525.4010335241339	632.7146607160436	0.0	520.4916436800276	672.4328639486357	0.0	522.1698806711768	687.4498324874831	0.0	527.7569268714454	685.5905508620411	0.0	517.7850614160933	677.9147156507181	0.0	509.76012294322953	517.7620551679051	0.0	510.18011802989895	487.86785833345755	0.0	509.0750418772369	511.2791127543379	0.0	488.26854988543005	526.3972077426583	0.0	481.7261869935711	562.6111748264861	0.0	479.4571076135841	592.0809167421063	0.0	531.9876884202595	525.5644575088633	0.0	542.8971998137266	558.9512961310782	0.0	546.1670941343158	587.1931267768779	0.0
815	27.17933177933178	512.2651973268262	588.4247312115626	0.0	500.67295700793676	591.3377107057224	0.0	499.4548229572476	634.2920304181338	0.0	503.30655972657956	673.8754637465731	0.0	505.38974851946466	688.5407767510364	0.0	498.71469578049437	687.1761122503484	0.0	504.66844997674497	679.3111962267561	0.0	525.1255126951464	590.6879160373238	0.0	525.9985976854296	631.7550234066817	0.0	521.3756190080438	671.461837354775	0.0	521.8809626252439	687.6773995897238	0.0	528.1695713299771	685.894114101151	0.0	518.4245171985965	676.7984164802207	0.0	509.53172862887317	517.3614498005207	0.0	510.2146443637381	486.84250721860434	0.0	509.32285676908924	509.87604028573656	0.0	487.84595151383974	526.238326455101	0.0	481.3722063430277	562.5525019337271	0.0	479.02552806193756	591.9461270073988	0.0	531.9504257359856	525.5381336388301	0.0	542.707927535511	558.9645839249948	0.0	546.171355651855	587.1280905797514	0.0
